<svg xmlns="http://www.w3.org/2000/svg" width="74.39" height="74.39" viewBox="0 0 74.39 74.39">
  <g id="Grupo_1208351" data-name="Grupo 1208351" transform="translate(-270 -769.652)">
    <g id="Grupo_1207385" data-name="Grupo 1207385" transform="translate(-51.059 -5921.348)">
      <g id="Grupo_1207190" data-name="Grupo 1207190" transform="translate(321.059 6691)">
        <circle id="Elipse_13775" data-name="Elipse 13775" cx="37.195" cy="37.195" r="37.195" fill="#fbe49d"/>
        <circle id="Elipse_13776" data-name="Elipse 13776" cx="29.902" cy="29.902" r="29.902" transform="translate(7.293 7.293)" fill="#3b4b68"/>
      </g>
    </g>
    <g id="Grupo_1208212" data-name="Grupo 1208212" transform="translate(59.714 697.533)">
      <path id="Trazado_1328242" data-name="Trazado 1328242" d="M238.966,116.017l.575-.622c-.764-.7-1.556-1.325-2.236-2.058a13.717,13.717,0,0,1-3.753-10.786,14.067,14.067,0,0,1,20.906-10.977.825.825,0,0,0,.937.018,4.426,4.426,0,0,1,6.162,1.856,3.422,3.422,0,0,1,.052,2.869c-.308.76-.673,1.5-1.012,2.243-.066.146-.13.292-.193.434a14.62,14.62,0,0,1,1.269.8,2.141,2.141,0,0,1,.253,3.416,1.161,1.161,0,0,0-.28.688,14.4,14.4,0,0,1-2.964,8.465,1.48,1.48,0,0,0-.255.6,2.265,2.265,0,0,1-1.575,1.8,15.51,15.51,0,0,0-1.758.851c-.78.406-1.551.831-2.381,1.278a4.135,4.135,0,0,0,.934,2.308c1.211,1.557,2.44,3.1,3.645,4.661a2.224,2.224,0,0,1,.115,2.8,2.277,2.277,0,0,1-3.663.088c-1.024-1.259-2.01-2.55-3.013-3.826-.124-.158-.254-.311-.43-.527-.262.278-.5.531-.734.78-1.179,1.233-2.343,2.481-3.543,3.693a2.29,2.29,0,1,1-3.263-3.21c1.036-1.056,2.1-2.089,3.136-3.14a3.121,3.121,0,0,0,1.007-2.648c-1.045-.2-2.085-.405-3.131-.58a.656.656,0,0,0-.477.183c-2.255,2.162-4.494,4.34-6.752,6.5-.28.268-.168.492-.086.772a2.226,2.226,0,0,1-4.138,1.608,2.421,2.421,0,0,1,.064-2.122c-.45-.466-.906-.937-1.361-1.409-1-1.042-.987-1.893.067-2.915q2.125-2.06,4.256-4.114a2.113,2.113,0,0,1,3.378.039C238.768,115.874,238.821,115.906,238.966,116.017Zm12.165-6.952a3.145,3.145,0,0,1,2.436-1.826,4.229,4.229,0,0,1,1.1.02,2.553,2.553,0,0,0,2.679-1.432.878.878,0,0,0-.808-1.286,6.161,6.161,0,0,1-2.921-1.057,2.355,2.355,0,0,1-1.092-1.963c0-.855-.227-1.17-1.067-1.392a5.933,5.933,0,0,1-2.984-1.864,2.14,2.14,0,0,1,.558-3.6,5.362,5.362,0,0,1,3.377-.715,1.164,1.164,0,0,0,1.43-.939.286.286,0,0,0-.018-.112,12.38,12.38,0,0,0-13.3.542c.161.038.293.082.427.1,2.508.326,3.954,2.777,2.511,5.4a2.913,2.913,0,0,1-2.371,1.555,3.591,3.591,0,0,0-1.061.282c-.513.229-.566.53-.238.978a1.356,1.356,0,0,0,1.156.6c.822,0,1.645.023,2.466,0a5.359,5.359,0,0,1,3.763.919c1.734-1.231,3.264-1.249,4.452-.091a3.067,3.067,0,0,1,.4,3.9c-.935,1.362-2.429,1.658-4.268.846-1.272,1.291-1.514,1.384-3.36,1.341a3.766,3.766,0,0,0-.8.063c-.751.145-.914.339-.975,1.1a3.355,3.355,0,0,1-2.494,3.157,1.223,1.223,0,0,0-.23.152l.874.624a16.187,16.187,0,0,0,1.212-1.548,7.07,7.07,0,0,1,3.3-2.938A15.133,15.133,0,0,1,251.131,109.065Zm-11.359-14.23,0,.185c-.973-.321-1.507.223-2.033.894a12.444,12.444,0,0,0-2.683,9.224,12.1,12.1,0,0,0,3.019,6.88.914.914,0,0,0,.475.34,2.2,2.2,0,0,0,2.617-2.251,2.058,2.058,0,0,1,1.131-1.847,4.266,4.266,0,0,1,2.505-.458,2.465,2.465,0,0,0,.85-.05,1.275,1.275,0,0,0,.907-1.591,3.557,3.557,0,0,1-.113-.85c0-.829-.094-1.015-.879-1.286a3.8,3.8,0,0,0-1.146-.184c-1.15-.024-2.3.007-3.453-.015a2.829,2.829,0,0,1-2.441-1.319,1.924,1.924,0,0,1,.789-2.993,6.9,6.9,0,0,1,1.645-.459,1.852,1.852,0,0,0,1.541-1.691,1.7,1.7,0,0,0-.858-2.047A10.637,10.637,0,0,0,239.773,94.834ZM251.1,114.923h-.055c0-.492.008-.985,0-1.477-.008-.36-.017-.714.368-.9s.7-.011,1,.244a3.707,3.707,0,0,0,3.978.587c.325-.125.619-.287.538-.7-.088-.456-.437-.5-.811-.442A6.057,6.057,0,0,1,251.4,110.9a2.123,2.123,0,0,0-1.135-.351,14.744,14.744,0,0,0-1.968.081,7.468,7.468,0,0,0-2.884.8,6.153,6.153,0,0,0-2.744,3.357c-.13.311-.33.652.108.833.38.156.534-.169.661-.467.088-.207.191-.409.3-.608A5.853,5.853,0,0,1,246.7,111.8c.816-.346,1.211-.1,1.277.761.125,1.659.237,3.318.389,4.974a4.839,4.839,0,0,1-1.482,4.073q-1.442,1.432-2.876,2.873a2.86,2.86,0,0,0-.366.413.819.819,0,0,0,1.127,1.123,3.624,3.624,0,0,0,.541-.5q2.155-2.244,4.3-4.494c.628-.654.991-.634,1.545.072q1.767,2.254,3.533,4.509c.1.129.194.32.326.357a1.833,1.833,0,0,0,.913.1.646.646,0,0,0,.417-.8,1.679,1.679,0,0,0-.319-.645q-1.716-2.215-3.456-4.413a5.944,5.944,0,0,1-1.3-3.011C251.176,116.441,251.153,115.68,251.1,114.923Zm-11.41,3.992c-.772-.793-1.484-1.529-2.2-2.26a.607.607,0,0,0-.966.028q-2.256,2.187-4.518,4.367c-.248.238-.259.433-.018.673.451.449.889.911,1.341,1.36a.544.544,0,0,0,.3.178c.464.021.93.021,1.395.006a.533.533,0,0,0,.316-.149C236.776,121.74,238.2,120.354,239.691,118.915Zm12.769-9.126a3.911,3.911,0,0,0,3.1,1.041,2.842,2.842,0,0,1,2.156.374,12.7,12.7,0,0,0,2.429-6.971l-1.31.309a.409.409,0,0,0-.033.1c.006.1.01.2.025.3a2.849,2.849,0,0,1-1.014,2.7,3.994,3.994,0,0,1-3.348,1.052A1.642,1.642,0,0,0,252.46,109.789Zm2.315-10.754c-.4-.9-.8-1.756-1.147-2.628-.422-1.049-.4-1.048-1.565-1.05a4.23,4.23,0,0,0-2.4.636c-.541.356-.6.656-.2,1.168a4.148,4.148,0,0,0,2.085,1.464,3.653,3.653,0,0,1,1.964,1.1Zm2.817,1.857a26.472,26.472,0,0,0,2.765-5.48,1.966,1.966,0,0,0-.053-1.137,2.96,2.96,0,0,0-4.515-1.222,2.182,2.182,0,0,0-.969,2.346A27.367,27.367,0,0,0,257.592,100.891Zm2.076-.6c-.5.8-.908,1.485-1.343,2.154-.47.724-1,.721-1.465,0-.443-.685-.867-1.381-1.33-2.122a9.865,9.865,0,0,0-1,.53c-.71.486-.7.99.014,1.495a2.868,2.868,0,0,0,.588.328,6.691,6.691,0,0,0,4.458.162,4.1,4.1,0,0,0,1.282-.694.626.626,0,0,0,.009-1.091A10.873,10.873,0,0,0,259.668,100.3Zm-8.583,5.093a1.588,1.588,0,1,0-1.588,1.546A1.569,1.569,0,0,0,251.086,105.389Zm-6.406,10.645,2.122.3c-.075-1-.141-1.873-.213-2.835A4.737,4.737,0,0,0,244.68,116.034Zm-10.347,8.592a.766.766,0,1,0,.016,1.53.784.784,0,0,0,.747-.743A.774.774,0,0,0,234.333,124.626Zm7.42-7.869-.684-.822L239.98,117.1l.774.806Z" transform="translate(0 0)" fill="#fef8e6"/>
      <path id="Trazado_1328243" data-name="Trazado 1328243" d="M435.226,116.916a2.318,2.318,0,1,1-2.306,2.318A2.332,2.332,0,0,1,435.226,116.916Zm.017,3.166a.847.847,0,1,0-.876-.852A.885.885,0,0,0,435.243,120.082Z" transform="translate(-177.637 -23.805)" fill="#fef8e6"/>
    </g>
  </g>
</svg>
