<svg xmlns="http://www.w3.org/2000/svg" width="74.39" height="74.39" viewBox="0 0 74.39 74.39">
  <g id="Grupo_1208350" data-name="Grupo 1208350" transform="translate(-270 -7268.078)">
    <g id="Grupo_1207385" data-name="Grupo 1207385" transform="translate(-51.059 577.078)">
      <g id="Grupo_1207190" data-name="Grupo 1207190" transform="translate(321.059 6691)">
        <circle id="Elipse_13775" data-name="Elipse 13775" cx="37.195" cy="37.195" r="37.195" fill="#fbe49d"/>
        <circle id="Elipse_13776" data-name="Elipse 13776" cx="29.902" cy="29.902" r="29.902" transform="translate(7.293 7.293)" fill="#3b4b68"/>
      </g>
    </g>
    <g id="Grupo_1208242" data-name="Grupo 1208242" transform="translate(-155.65 7206.564)">
      <path id="Trazado_1328450" data-name="Trazado 1328450" d="M465.724,157.215c.182.419.365.79.507,1.175a6.022,6.022,0,0,1,.207,2.908q-.271,2.105-.543,4.21-.249,1.908-.5,3.815c-.017.131-.042.262-.047.394a2.061,2.061,0,0,1-1.235,1.991v3.72l1.612.542a3.1,3.1,0,0,1,.424.155.608.608,0,0,1,.324.8.615.615,0,0,1-.757.325c-.506-.15-1-.324-1.506-.49-.215-.071-.428-.148-.643-.217-.631-.2-.72-.316-.722-.965,0-1.115,0-2.229,0-3.344v-.5a1.949,1.949,0,0,1-1.183-1.392,3.487,3.487,0,0,1-.059-.673q-.007-2.721,0-5.441v-.575h-1.207c-.008.188-.023.37-.023.553,0,1.833-.025,3.666.009,5.5a1.971,1.971,0,0,1-1.231,2.029v.538c0,1.115,0,2.229,0,3.344,0,.622-.091.732-.69.927q-1,.324-1.989.652a2.127,2.127,0,0,1-.214.073.615.615,0,0,1-.734-.378.565.565,0,0,1,.324-.748c.415-.177.853-.3,1.28-.446.264-.092.526-.189.8-.288v-3.666l-.286-.169a1.776,1.776,0,0,1-.909-1.359q-.166-1.263-.333-2.525c-.253-1.946-.514-3.89-.753-5.838a6.986,6.986,0,0,1-.059-2.7c.136-.507.321-1,.493-1.5a4.933,4.933,0,0,1,.235-.48,2.059,2.059,0,0,1-.32-.226,1.888,1.888,0,0,1-.516-1.394c.007-1.227,0-2.455,0-3.753-.2,0-.377-.013-.557-.013-1.625,0-3.249,0-4.874,0a1.893,1.893,0,0,1-1.266-.4,1.831,1.831,0,0,1-.563-2.048,1.791,1.791,0,0,1,1.634-1.19c.221-.009.443,0,.7,0,.011-.246.026-.431.026-.615,0-1.247,0-2.494,0-3.741a2.96,2.96,0,0,1,.022-.508.54.54,0,0,1,.571-.447.552.552,0,0,1,.58.438,1.928,1.928,0,0,1,.025.395q0,2.409,0,4.818c0,.7-.163.859-.872.875-.321.007-.643-.011-.963.011a.557.557,0,0,0-.584.618c.012.345.2.528.577.566.037,0,.076,0,.113,0H455.5c.1-.179.2-.357.306-.53a2.068,2.068,0,0,1,1.821-1.068c2.248-.017,4.5-.022,6.744,0a2.177,2.177,0,0,1,2.13,1.968,9.482,9.482,0,0,1,.036,1.018c0,1.039-.015,2.079.007,3.117A2.3,2.3,0,0,1,465.724,157.215Zm-6.581,9.254q0-1.359,0-2.718c0-.264-.01-.529,0-.793.033-.594.335-.851.889-.687a3.077,3.077,0,0,0,1.943-.014.537.537,0,0,1,.11-.024.61.61,0,0,1,.743.583,3.858,3.858,0,0,1,.007.453q0,3.171,0,6.343a2.827,2.827,0,0,0,.014.452.642.642,0,0,0,.523.53.632.632,0,0,0,.63-.386,1.158,1.158,0,0,0,.084-.324q.285-2.188.563-4.376c.2-1.59.385-3.183.605-4.77a4.4,4.4,0,0,0-.592-2.822.685.685,0,0,0-.68-.386c-2,.016-4,.013-6,0a.656.656,0,0,0-.64.351,4.5,4.5,0,0,0-.583,3.048c.184,1.421.363,2.842.547,4.263.2,1.552.4,3.1.608,4.655.07.517.327.781.67.747.365-.035.553-.31.556-.842C459.146,168.66,459.143,167.565,459.143,166.47Zm1.85-10.156c1.17,0,2.34.006,3.509,0,.557,0,.806-.242.81-.788.01-1.415.016-2.83,0-4.245a1.01,1.01,0,0,0-1.1-1.087q-3.2-.012-6.4,0c-.756,0-1.086.352-1.094,1.127-.007.7,0,1.4,0,2.094,0,.736-.008,1.472,0,2.207a.627.627,0,0,0,.654.692c.131.012.264,0,.4,0Z" transform="translate(0 -57.663)" fill="#fef8e6"/>
      <path id="Trazado_1328451" data-name="Trazado 1328451" d="M629.89,202.275q0,2.264,0,4.528a3.735,3.735,0,0,1-.01.452.525.525,0,0,1-.5.516,2.856,2.856,0,0,1-.4.011h-6.736c-.113,0-.227.006-.339,0a.606.606,0,0,1-.6-.562,3.036,3.036,0,0,1-.013-.452q0-4.472,0-8.944c0-.076,0-.151,0-.226.018-.613.21-.812.823-.814q3.481-.007,6.962,0c.661,0,.814.164.815.852Q629.894,199.954,629.89,202.275Zm-2.4-4.236c-.01.172-.022.284-.023.4,0,.434.013.869-.007,1.3-.022.488-.221.681-.709.688-.773.011-1.547.012-2.321,0-.453-.008-.641-.206-.667-.664-.014-.263.008-.529-.006-.792a2.617,2.617,0,0,0-.069-.953c-.2,0-.392,0-.58,0s-.365.017-.54.025c-.11.909-.073,8.1.039,8.489a52.861,52.861,0,0,0,6.02-.062v-8.429Zm-2.456,0v1.153H626.2v-1.177c-.318,0-.6,0-.879,0C625.234,198.017,625.145,198.03,625.033,198.039Z" transform="translate(-153.549 -105.491)" fill="#fef8e6"/>
      <path id="Trazado_1328452" data-name="Trazado 1328452" d="M529.911,81.894a4.463,4.463,0,0,1,2.21,2.591,4.1,4.1,0,0,1-.076,2.77,4.292,4.292,0,0,1-4.128,2.787,4.35,4.35,0,0,1-4.037-3.083c-.572-1.936.179-3.653,2.256-5.1a2.553,2.553,0,0,1-.511-2.163,2.46,2.46,0,0,1,3.993-1.3C530.607,79.247,530.712,80.418,529.911,81.894ZM525.6,84a2.932,2.932,0,0,0,.165,3.838,3.083,3.083,0,0,0,4.2.289,3.012,3.012,0,0,0,.5-4.173,3.117,3.117,0,0,1-2.4,1.2A3.156,3.156,0,0,1,525.6,84Zm2.44-2.547a1.207,1.207,0,1,0-1.246-1.183A1.2,1.2,0,0,0,528.041,81.456Zm1.458,1.656a2.615,2.615,0,0,0-2.925.041A1.765,1.765,0,0,0,529.5,83.111Z" transform="translate(-67.022)" fill="#fef8e6"/>
      <path id="Trazado_1328453" data-name="Trazado 1328453" d="M610.729,83.332a5.522,5.522,0,0,1,10.8-1.606,5.447,5.447,0,0,1-3.345,6.76c-.621.224-1.124.452-1.324,1.13a.609.609,0,0,1-.592.453.577.577,0,0,1-.608-.42c-.218-.715-.766-.944-1.419-1.185A5.411,5.411,0,0,1,610.729,83.332Zm5.53,4.716a.906.906,0,0,1,.744-.479,4.288,4.288,0,1,0-2.819-7.976,4.132,4.132,0,0,0-2.236,3.913,4.264,4.264,0,0,0,3.485,4.052A1.15,1.15,0,0,1,616.26,88.048Z" transform="translate(-144.188 -0.034)" fill="#fef8e6"/>
      <path id="Trazado_1328454" data-name="Trazado 1328454" d="M644.945,241.025c-.394,0-.79.017-1.183-.005a.628.628,0,0,1-.62-.608.685.685,0,0,1,.561-.619.569.569,0,0,1,.112-.008c.789,0,1.579-.014,2.367.007a.622.622,0,0,1,.641.644.613.613,0,0,1-.638.585C645.773,241.041,645.359,241.025,644.945,241.025Z" transform="translate(-172.927 -143.617)" fill="#fef8e6"/>
      <path id="Trazado_1328455" data-name="Trazado 1328455" d="M644.993,261.707c.4,0,.794-.01,1.19,0a.6.6,0,0,1,.656.56.612.612,0,0,1-.592.639c-.83.028-1.662.027-2.492,0a.616.616,0,0,1-.6-.631.6.6,0,0,1,.647-.571C644.2,261.7,644.6,261.707,644.993,261.707Z" transform="translate(-172.939 -163.055)" fill="#fef8e6"/>
      <path id="Trazado_1328456" data-name="Trazado 1328456" d="M638.437,102.52a3.062,3.062,0,0,1-6.124.009,3.062,3.062,0,1,1,6.124-.009Zm-2.289,1.621c-.837-.831-1.592-1.623-2.429-2.394a1.74,1.74,0,0,0,.411,2.09A1.664,1.664,0,0,0,636.148,104.141Zm-1.519-3.255,2.385,2.373a1.771,1.771,0,0,0-2.385-2.373Z" transform="translate(-163.326 -19.196)" fill="#fef8e6"/>
    </g>
  </g>
</svg>
