<svg xmlns="http://www.w3.org/2000/svg" xmlns:xlink="http://www.w3.org/1999/xlink" width="135.176" height="127.499" viewBox="0 0 135.176 127.499">
  <defs>
    <clipPath id="clip-path">
      <rect id="Rectángulo_400938" data-name="Rectángulo 400938" width="120" height="120" fill="none"/>
    </clipPath>
  </defs>
  <g id="Grupo_1208397" data-name="Grupo 1208397" transform="translate(-489 -6890.364)">
    <path id="Rectángulo_36179" data-name="Rectángulo 36179" d="M0,0H129.117V127.5H0Z" transform="translate(495.059 6890.364)" fill="#f9f7f0"/>
    <path id="Trazado_1328738" data-name="Trazado 1328738" d="M382.758,141.55a34.877,34.877,0,0,1,5.352.909,8.381,8.381,0,0,1,5.573,7.827c.055,4.171.032,8.344.015,12.515a2.362,2.362,0,0,1-2.555,2.63c-.358.017-.718.005-1.077.005H300.975c-3.01,0-3.59-.59-3.591-3.648,0-3.409.1-6.822-.021-10.227-.227-6.472,4.745-10.24,9.776-9.766.384.036.775,0,1.194,0a35.147,35.147,0,0,1-4.19-3.758,35.276,35.276,0,0,1-2.861-4.809,18.135,18.135,0,0,1-3.356-1.053,3.626,3.626,0,0,1-1.995-3.544c.054-1.523.067-3.052,0-4.574a4.421,4.421,0,0,1,1.532-3.427,2.936,2.936,0,0,0,.817-1.765c.087-2.734.015-5.472.045-8.208a9.056,9.056,0,0,1,9.316-9.223c4.351-.022,8.7,0,13.054-.005h1.474a5.716,5.716,0,0,0,.22-.733c.1-.714.526-1.735.211-2.086a4.1,4.1,0,0,0-3.167-1.76c-3.588.069-7.177.03-10.766.019-2.03-.006-2.876-.8-2.886-2.855q-.044-8.545,0-17.091c.011-2.042.954-2.928,3-2.931q11.439-.014,22.878,0c2.008,0,2.988.971,3.023,2.945.02,1.121.029,2.244-.008,3.364-.033.976-.527,1.692-1.549,1.659-.948-.03-1.388-.712-1.385-1.657,0-1.067,0-2.135,0-3.277H308.768V93.967c3.036,0,6,.142,8.937-.041a8.541,8.541,0,0,1,6.965,2.464,17.627,17.627,0,0,0,1.71,1.361c.528-1.132.774-2.587,1.631-3.239.873-.664,2.347-.536,3.73-.786,0-1.7.01-3.528,0-5.355-.009-1.1-.109-2.363,1.372-2.472,1.36-.1,1.552,1.077,1.628,1.824,6.242-.015,12.415-.175,18.574.036,2.12.072,4.214,1.05,6.306,1.658a10.425,10.425,0,0,1,1.589.8c0-2.987,0-5.758,0-8.529a13.611,13.611,0,0,1,.059-1.746,2.219,2.219,0,0,1,2.431-2.179q11.91-.032,23.82,0a2.362,2.362,0,0,1,2.59,2.485c.061,3,.041,6.011.007,9.016a1.455,1.455,0,0,1-1.581,1.621c-.929-.058-1.35-.746-1.344-1.7.015-2.775.005-5.549.005-8.425H364.22v16.91c2.275,0,4.51.107,6.73-.03a4.682,4.682,0,0,1,4.95,2.687,18.135,18.135,0,0,0,1.145,1.711c.527-.845.99-1.534,1.4-2.255a3.86,3.86,0,0,1,3.749-2.124c1.607.05,3.217.011,4.926.011.031-.514.062-.944.081-1.374.041-.9.564-1.579,1.39-1.463a2.146,2.146,0,0,1,1.457,1.265c.784,2.873-.551,4.528-3.494,4.53-1.435,0-2.872-.026-4.306.017a4.806,4.806,0,0,0-1.191.351l.076.433c.825,0,1.651-.008,2.476,0a9.2,9.2,0,0,1,9.243,9.23c.04,2.826-.024,5.653.039,8.477a2.257,2.257,0,0,0,.678,1.419,4.91,4.91,0,0,1,1.748,3.776c-.022,1.345.022,2.692-.012,4.037a4.5,4.5,0,0,1-4.491,4.568,1.46,1.46,0,0,0-1.6,1.183,12.652,12.652,0,0,1-6.033,7.112,2.79,2.79,0,0,0-.418.318C382.74,141.575,382.758,141.639,382.758,141.55Zm-44.614-.29c-1.532,0-3-.015-4.475,0a7.09,7.09,0,0,0-7.281,7.323c-.025,3.946-.006,7.892-.006,11.838v2.045h38.365c0-1.089,0-2.152,0-3.216,0-.963.345-1.76,1.407-1.765,1.119,0,1.5.788,1.491,1.826-.013,1.052,0,2.105,0,3.131h23.092c0-4.261.108-8.43-.044-12.59a4.781,4.781,0,0,0-3.426-4.569,37.305,37.305,0,0,0-6.067-.818c-.481,2.175-1.316,3.742-3.09,4.664a7.075,7.075,0,0,1-10.024-3.8c-.106-.284-.5-.46-.707-.639.093,2.55.192,4.864.255,7.179.027,1-.458,1.7-1.493,1.679-.983-.015-1.368-.74-1.385-1.655-.021-1.165.027-2.334-.032-3.5-.193-3.791-2.65-6.7-6.142-7.058a54.73,54.73,0,0,0-5.538-.033c-.068.345-.136.644-.185.946a5.42,5.42,0,0,1-5.614,4.9c-.9.022-1.794.005-2.69,0C340.514,147.155,338.6,145.451,338.143,141.26Zm-10.412-28.854c.033-.243.077-.454.089-.668.141-2.567.838-3.247,3.366-3.25,3.361,0,6.724-.04,10.085.01a8.047,8.047,0,0,0,6.954-3.36c1.248-1.655,2.985-1.649,4.256.012a7.738,7.738,0,0,0,6.827,3.321c2.745-.138,4.164.569,3.993,3.734,0,.066.1.139.15.207l2.852.266c-.295-4,.484-8.029-.675-12.046-.493,0-.893,0-1.293,0-2.21-.024-3.083-.882-3.125-3.088a21.782,21.782,0,0,0-.038-2.684,2.553,2.553,0,0,0-.773-1.544,11.514,11.514,0,0,0-6.642-2.644c-4.968-.184-9.945-.172-14.917-.142a26.989,26.989,0,0,0-3.867.539c-.3,1.779-.252,3.439-.878,4.785-.81,1.74-2.843.7-4.349,1.186,0,.56,0,1.095,0,1.629a14.209,14.209,0,0,1-.038,1.611A1.822,1.822,0,0,1,326.7,101.7c-.4-.257-.791-.537-1.546-1.053v11.989Zm3.151-1.01a2.748,2.748,0,0,0-.149.538c0,4.351-.139,8.708.04,13.052a11.394,11.394,0,0,0,8.892,10.695,42.4,42.4,0,0,0,8.416.486,11.834,11.834,0,0,0,12.227-12.213c.017-3.589,0-7.177,0-10.766v-1.8a11.326,11.326,0,0,1-9.984-4.179c-2.866,3.61-6.668,4.409-10.9,4.214C336.608,111.292,333.78,111.4,330.883,111.4Zm-7.223,51.1V144.609a3.948,3.948,0,0,0-.742,1.041,5.266,5.266,0,0,1-5.1,4.01c-.9.028-1.794.026-2.689-.007a4.531,4.531,0,0,1-4.542-3.173c-.5-1.774-1.42-1.947-2.847-1.8-.355.037-.717,0-1.075.007-3.955.041-6.333,2.421-6.354,6.394-.018,3.407-.007,6.814,0,10.221,0,.387.056.773.088,1.192Zm45.42-32.579h1.571c2.779,0,5.559-.015,8.339.005,2.23.016,3.164,1.229,2.676,3.411a7.054,7.054,0,0,1-8.5,5.315,30.633,30.633,0,0,1-4.519-2l-3.146.907a25.193,25.193,0,0,0,2.73,1.538c3.232,1.329,6.645.949,9.962.663a9.655,9.655,0,0,0,8.768-9.456c.072-1.835.031-3.675.035-5.513,0-1.871,0-3.742,0-5.466a27.053,27.053,0,0,1-4.568-1.054,27.593,27.593,0,0,1-3.97-2.486c-2.246,2.664-5.355,3.487-8.856,3.238C369.425,122.758,369.256,126.262,369.079,129.919Zm-48.189-14.2c-1.245.872-2.238,1.92-3.447,2.33a20.438,20.438,0,0,1-5.35.943c-2.624.15-5.262.038-7.86.038a2.544,2.544,0,0,0-.166.536c-.009,3.5-.052,6.994,0,10.491a9.665,9.665,0,0,0,6.524,9.139,21.28,21.28,0,0,0,11.533.158,17.726,17.726,0,0,0,3.569-1.754L322.1,136.53c-.2.164-.567.486-.955.78-4.012,3.036-10.2,1.258-11.517-3.3-.818-2.833.11-4.084,3.038-4.086,3.037,0,6.073,0,9.172,0a10.734,10.734,0,0,0,.1-1.166c-.113-3.931-.217-7.863-.391-11.792C321.525,116.517,321.1,116.09,320.89,115.716Zm-19.6,1.119a19.408,19.408,0,0,1,3.2-.638c2.862-.087,5.729-.027,8.595-.033a6.382,6.382,0,0,0,5.374-2.539,2.667,2.667,0,0,1,3.369-1.163v-8.074c-5.172,0-10.228-.1-15.276.042a5.807,5.807,0,0,0-5.222,5.165C301.145,112.082,301.285,114.591,301.285,116.835Zm88.564.08c0-2.155.168-4.661-.043-7.135a6.067,6.067,0,0,0-6.017-5.441,28,28,0,0,0-3.493.021,3.229,3.229,0,0,0-1.7.714,2.021,2.021,0,0,1-3.076-.037c-.245-.244-.517-.644-.788-.652-1.814-.058-3.632-.03-5.548-.03,0,3.773-.02,7.352.037,10.93a1.221,1.221,0,0,0,.831.844,6.957,6.957,0,0,0,6.528-2.655c1.3-1.685,2.813-1.7,4.106-.062a7.23,7.23,0,0,0,5.965,2.8A15.862,15.862,0,0,1,389.849,116.916Zm-48.7,22.208c0,.849-.009,1.557,0,2.265.03,1.906.886,2.785,2.789,2.825,1.163.024,2.328.033,3.491-.008a2.293,2.293,0,0,0,2.449-2.035,22.309,22.309,0,0,0,.027-3.047Zm-16.211-11.587v6.7h6.674c-.512-.709-.953-1.261-1.327-1.856a6.137,6.137,0,0,1-1.069-1.988c-.408-2.394-1.919-3.08-4.085-2.936A.945.945,0,0,0,324.942,127.536Zm34.884,6.725h6.432V127.44a18,18,0,0,0-2.436.27,1.877,1.877,0,0,0-1.118.785C361.706,130.372,360.8,132.3,359.826,134.262Zm3.488-9.568c2.4.141,3.286-.657,3.324-2.887.021-1.205.029-2.412,0-3.616-.056-2.2-1.1-3.027-3.322-2.633Zm-35.544-9.17c-2.252-.275-3.289.586-3.312,2.648-.015,1.343-.03,2.687.005,4.03.051,1.9,1.355,2.83,3.307,2.356Zm-14.641,27.349c-.309,1.994.009,3,1.11,3.613.949.528,4.2.4,4.947-.212,1.127-.93,1.107-2.126.817-3.4Zm57.928-.053c-.132,1.446-.349,2.954,1.144,3.6a5.366,5.366,0,0,0,4.888-.128c1.312-.771,1.112-2.16.914-3.467Zm-.675-9.949a4.1,4.1,0,0,0,4.338,3.041,3.839,3.839,0,0,0,3.9-3.041Zm-57.9.012c.025,1.8,2.408,3.162,4.322,3.037,2.04-.133,3.6-1.335,3.783-3.037ZM390,129.977c1.719.1,2.348-.4,2.4-1.863.042-1.249.047-2.5-.006-3.751-.061-1.411-.808-1.953-2.391-1.776Zm-88.96.028v-7.479c-1.62-.033-2.351.6-2.4,2.064-.036,1.113-.031,2.228,0,3.341C298.684,129.457,299.326,130.029,301.042,130ZM324.6,142.067a7.706,7.706,0,0,0,1.867-.857,10.376,10.376,0,0,1,7.436-2.865c1.079.019,2.158,0,3.238,0-2.336-1.675-4.919-.887-7.395-1.028-.1-.005-.208.155-.305.245C327.921,138.974,326.406,140.385,324.6,142.067Zm29.247-4.117.074.4c.782,0,1.566.037,2.346-.006a10.882,10.882,0,0,1,8.575,3.045c.339.328.979.346,1.479.508-.913-.96-2.167-1.505-2.849-2.459-1.519-2.123-3.526-2.414-5.83-2.169-.4.042-.818-.061-1.2.02C355.563,137.469,354.707,137.724,353.845,137.95Zm14.91-37.082c1.259.9,2.7.413,4.081.357C371.587,100.251,370.14,100.794,368.755,100.868Z" transform="translate(213.939 6832.649)"/>
    <path id="Trazado_1328739" data-name="Trazado 1328739" d="M363.121,114.131c-2.151,0-4.3-.015-6.454.006-1.057.01-1.958-.224-1.952-1.475.006-1.274.968-1.446,1.99-1.446q6.521,0,13.043,0c1,0,1.878.257,1.89,1.415.013,1.212-.842,1.524-1.928,1.509C367.514,114.11,365.317,114.131,363.121,114.131Z" transform="translate(170.975 6805.443)"/>
    <path id="Trazado_1328740" data-name="Trazado 1328740" d="M569.173,124.916c2.2,0,4.394.015,6.59-.006,1.061-.01,1.8.393,1.79,1.511-.014,1.071-.8,1.4-1.765,1.4q-6.658,0-13.316,0c-1,0-1.859-.276-1.857-1.448,0-1.144.8-1.474,1.832-1.466C564.69,124.929,566.932,124.916,569.173,124.916Z" transform="translate(20.502 6795.436)"/>
    <path id="Trazado_1328741" data-name="Trazado 1328741" d="M363.223,94.014c2.2,0,4.393.015,6.59-.006,1.047-.01,1.828.366,1.828,1.484,0,1.148-.843,1.444-1.86,1.442q-6.589-.014-13.179,0c-.991,0-1.87-.222-1.886-1.406-.017-1.237.847-1.527,1.919-1.519C358.829,94.027,361.026,94.014,363.223,94.014Z" transform="translate(170.975 6818.019)"/>
    <path id="Trazado_1328742" data-name="Trazado 1328742" d="M569.07,107.8c2.2,0,4.392.014,6.588-.006,1.01-.009,1.869.245,1.9,1.4.03,1.235-.885,1.534-1.928,1.536q-6.521.007-13.042,0c-1.023,0-1.973-.247-1.961-1.5s.96-1.438,1.993-1.431C564.768,107.814,566.919,107.8,569.07,107.8Z" transform="translate(20.497 6807.942)"/>
    <path id="Trazado_1328743" data-name="Trazado 1328743" d="M565.2,145.007c-1.031,0-2.063.03-3.093-.007a1.387,1.387,0,0,1-1.51-1.52,1.349,1.349,0,0,1,1.513-1.371c2.062-.027,4.124-.029,6.186.006a1.331,1.331,0,0,1,1.445,1.435A1.367,1.367,0,0,1,568.291,145C567.261,145.036,566.229,145.006,565.2,145.007Z" transform="translate(20.518 6782.881)"/>
    <path id="Trazado_1328744" data-name="Trazado 1328744" d="M359.422,131.223a15.2,15.2,0,0,1-3.078-.058c-.54-.113-1.3-.808-1.329-1.275-.026-.487.687-1.427,1.125-1.456a49.725,49.725,0,0,1,6.7,0c.444.03,1.166.969,1.14,1.454-.025.467-.8,1.167-1.343,1.274A16.888,16.888,0,0,1,359.422,131.223Z" transform="translate(170.756 6792.943)"/>
    <path id="Trazado_1328745" data-name="Trazado 1328745" d="M458.126,261.635c1.836,0,3.674-.027,5.509.009a2.524,2.524,0,0,1,2.632,3.093c-.442,3.814-3.735,6.644-7.936,6.82a8.015,8.015,0,0,1-8.294-6.216c-.48-2.475.5-3.693,2.983-3.705C454.721,261.627,456.424,261.634,458.126,261.635Zm5.087,2.968H452.976a4.852,4.852,0,0,0,5,4.061A4.924,4.924,0,0,0,463.213,264.6Z" transform="translate(101.4 6695.524)"/>
    <path id="Trazado_1328746" data-name="Trazado 1328746" d="M475.531,233.653a5.362,5.362,0,0,1,1.9.2c.5.279,1.106.916,1.1,1.384a1.828,1.828,0,0,1-1.154,1.309,6.948,6.948,0,0,1-2.791-.01c-.549-.1-1.4-.587-1.454-.991a30.206,30.206,0,0,1-.222-5.1c.008-.25.987-.738,1.4-.636a1.925,1.925,0,0,1,1.176,1.2A11.774,11.774,0,0,1,475.531,233.653Z" transform="translate(84.616 6718.783)"/>
    <path id="Trazado_1328747" data-name="Trazado 1328747" d="M447.9,223.7c0,.534.185,1.174-.046,1.574a2.432,2.432,0,0,1-1.443,1.227c-.413.044-1.226-.677-1.311-1.156a9.69,9.69,0,0,1-.006-3.442,1.881,1.881,0,0,1,1.4-1.194c.486.017,1.1.731,1.368,1.281a4.254,4.254,0,0,1,.047,1.711Z" transform="translate(105.036 6725.425)"/>
    <path id="Trazado_1328748" data-name="Trazado 1328748" d="M507.477,223.689a4.347,4.347,0,0,1-.146,1.712c-.276.5-.922,1.12-1.392,1.107a1.815,1.815,0,0,1-1.288-1.187,9.223,9.223,0,0,1-.008-3.328c.1-.522.863-1.277,1.322-1.274.483,0,1.119.7,1.394,1.249a4.191,4.191,0,0,1,.048,1.718Z" transform="translate(61.516 6725.418)"/>
    <path id="Trazado_1328749" data-name="Trazado 1328749" d="M582.991,257.467c2,.2,2.77.686,2.6,1.659-.27,1.567-1.542,1.367-2.65,1.349-1.993-.032-2.868-.915-2.9-2.879-.01-.538,0-1.076,0-1.614-.01-1.009.3-1.855,1.446-1.868,1.123-.012,1.512.784,1.509,1.813C582.99,256.412,582.991,256.9,582.991,257.467Z" transform="translate(6.311 6701.014)"/>
    <path id="Trazado_1328750" data-name="Trazado 1328750" d="M607.836,249.137c0-.447-.167-1,.037-1.318.35-.534.929-1.258,1.42-1.264a1.969,1.969,0,0,1,1.385,1.249,8.5,8.5,0,0,1,.054,2.8c-.068.859-.632,1.569-1.481,1.329-.567-.16-1.049-.893-1.391-1.474-.2-.332-.036-.874-.036-1.321Z" transform="translate(-13.953 6706.538)"/>
    <path id="Trazado_1328751" data-name="Trazado 1328751" d="M367.684,257.434c2.085.217,2.8.683,2.626,1.692-.268,1.586-1.562,1.34-2.651,1.326-2.027-.026-2.82-.856-2.843-2.89-.008-.671-.012-1.343.01-2.014a1.335,1.335,0,0,1,1.407-1.461,1.359,1.359,0,0,1,1.443,1.44C367.72,256.141,367.684,256.761,367.684,257.434Z" transform="translate(163.598 6701.034)"/>
    <path id="Trazado_1328752" data-name="Trazado 1328752" d="M344.528,249.249c-.026.551.114,1.141-.111,1.505a2.318,2.318,0,0,1-1.362,1.13,1.664,1.664,0,0,1-1.3-1,9.284,9.284,0,0,1,0-3.312,1.853,1.853,0,0,1,1.4-1.059c.408-.027,1.022.6,1.253,1.084A4.429,4.429,0,0,1,344.528,249.249Z" transform="translate(180.559 6706.569)"/>
  </g>
</svg>
